<svg xmlns="http://www.w3.org/2000/svg" viewBox="0 0 408.22 88.7"><defs><style>.cls-1{fill:#fff;}.cls-2{fill:#fe6e00;}</style></defs><g id="Слой_2" data-name="Слой 2"><g id="Слой_4" data-name="Слой 4"><path class="cls-1" d="M107.36,65.94V58.19l34.28.06a5.89,5.89,0,0,0,4-1.22,5,5,0,0,0,1.41-4,5,5,0,0,0-1.41-4,5.94,5.94,0,0,0-4-1.22H120.29q-6.62,0-10.28-3.19t-3.67-9.39q0-6.21,3.67-9.39t10.28-3.19H153.8v7.75l-32.49-.06a6.23,6.23,0,0,0-4,1.16,4.55,4.55,0,0,0-1.43,3.73A4.52,4.52,0,0,0,117.31,39a6.17,6.17,0,0,0,4,1.17h21.34c4.42,0,7.84,1.08,10.29,3.25s3.67,5.37,3.67,9.63-1.23,7.41-3.67,9.6-5.87,3.27-10.29,3.27Z"/><path class="cls-1" d="M177.41,65.94q-8,0-12.46-4t-4.47-11.66q0-7.74,4.47-11.71t12.46-4h11q8,0,12.47,4t4.47,11.71q0,7.7-4.47,11.66t-12.47,4Zm0-6.85h11a7.85,7.85,0,0,0,5.94-2.15q2.06-2.14,2.05-6.62c0-3-.68-5.24-2.05-6.68a7.84,7.84,0,0,0-5.94-2.14h-11a7.83,7.83,0,0,0-5.93,2.14c-1.37,1.44-2.06,3.66-2.06,6.68s.69,5.19,2.06,6.62A7.84,7.84,0,0,0,177.41,59.09Z"/><path class="cls-1" d="M210.74,65.65V23h8.65V65.65Z"/><path class="cls-1" d="M225.35,44.6V23h52.47V44.6h-9.66V30.77h-13V65.65h-9.54V30.77H235V44.6Z"/><path class="cls-1" d="M299.52,65.94q-8,0-12.46-4t-4.47-11.66q0-7.74,4.47-11.71t12.46-4h14.91q5.25,0,8,2.48a9,9,0,0,1,2.77,7.06q0,9.36-10.79,9.36H291.89q1.26,5.55,7.63,5.55h24.15v6.85Zm0-24.44q-6.13,0-7.57,5.19H314a2.47,2.47,0,0,0,1.88-.72,2.72,2.72,0,0,0,.69-2A2.24,2.24,0,0,0,314,41.5Z"/><path class="cls-1" d="M346.33,65.94q-8,0-12.46-4t-4.48-11.66q0-7.74,4.48-11.71t12.46-4h20V41.5h-20a7.86,7.86,0,0,0-5.94,2.14c-1.37,1.44-2.05,3.66-2.05,6.68s.68,5.19,2.05,6.62a7.86,7.86,0,0,0,5.94,2.15H366.9v6.85Z"/><path class="cls-1" d="M371.37,65.65V23H380V34.94h18.13c3.5,0,6.05.87,7.66,2.59a9.63,9.63,0,0,1,2.42,6.83V65.65h-8.65V45.37q0-3.57-3.58-3.57H380V65.65Z"/><path class="cls-2" d="M44.35,0A44.35,44.35,0,1,0,88.7,44.35,44.35,44.35,0,0,0,44.35,0Zm-26,42.2H33.39l6.43,6.44V59.38l-6.45,6.45H11.9L5.46,59.38l6.44-6.44,8.59,8.59h8.59l2.14-2.15V48.64L29.09,46.5h-15L7.61,40.06V29.32l6.44-6.44H35.52L42,29.32l-6.44,6.44-8.58-8.58h-8.6l-2.15,2.14V40.06ZM65.58,65.83H57V31.47l-2.14-2.15H44.11l-6.44-6.44H59.14l6.44,6.44Zm2.15-36.51-6.44-6.44H80.61v6.44Z"/></g></g></svg>