<svg xmlns="http://www.w3.org/2000/svg" viewBox="0 0 149.22 85.27"><defs><style>.cls-1{fill:#fff;}</style></defs><g id="Слой_2" data-name="Слой 2"><g id="Слой_4" data-name="Слой 4"><polygon class="cls-1" points="72.48 12.79 59.69 0 17.05 0 4.26 12.79 4.26 34.11 17.05 46.9 46.91 46.9 51.16 51.16 51.16 72.48 46.9 76.74 29.84 76.74 12.79 59.69 0 72.48 12.79 85.27 55.43 85.27 68.22 72.48 68.22 51.16 55.45 38.37 25.58 38.37 21.32 34.11 21.32 12.79 25.58 8.53 42.66 8.53 59.69 25.58 72.48 12.79"/><polygon class="cls-1" points="76.74 12.79 98.06 12.79 102.33 17.05 102.33 85.27 119.38 85.27 119.38 12.79 106.59 0 63.95 0 76.74 12.79"/><polygon class="cls-1" points="110.85 0 123.64 12.79 149.22 12.79 149.22 0 110.85 0"/></g></g></svg>