<svg xmlns="http://www.w3.org/2000/svg" viewBox="0 0 408.22 43.94"><defs><style>.cls-1{fill:#fe6e00;}.cls-2{fill:#fff;}</style></defs><g id="Слой_2" data-name="Слой 2"><g id="Слой_4" data-name="Слой 4"><path class="cls-1" d="M102.42,43.94V36.06l34.85.06a6.08,6.08,0,0,0,4.09-1.24,5.1,5.1,0,0,0,1.42-4,5.07,5.07,0,0,0-1.42-4,6,6,0,0,0-4.09-1.25h-21.7q-6.72,0-10.45-3.24t-3.73-9.54q0-6.3,3.73-9.55T115.57,0h34.06V7.88l-33-.06A6.27,6.27,0,0,0,112.54,9a4.6,4.6,0,0,0-1.45,3.79,4.58,4.58,0,0,0,1.45,3.78,6.27,6.27,0,0,0,4.06,1.19h21.7q6.72,0,10.45,3.3t3.73,9.79q0,6.42-3.73,9.75T138.3,43.94Z"/><path class="cls-1" d="M173.63,43.94q-8.12,0-12.67-4t-4.54-11.85q0-7.87,4.54-11.91t12.67-4h11.21q8.11,0,12.67,4t4.54,11.91q0,7.82-4.54,11.85t-12.67,4Zm0-7h11.21a8,8,0,0,0,6-2.18c1.4-1.46,2.09-3.7,2.09-6.73s-.69-5.33-2.09-6.79a8,8,0,0,0-6-2.18H173.63a8,8,0,0,0-6,2.18q-2.08,2.19-2.09,6.79t2.09,6.73A8,8,0,0,0,173.63,37Z"/><path class="cls-1" d="M207.51,43.63V.3h8.78V43.63Z"/><path class="cls-1" d="M222.35,22.24V.3h53.33V22.24h-9.82V8.18H252.65V43.63H243V8.18H232.17V22.24Z"/><path class="cls-1" d="M297.74,43.94q-8.12,0-12.67-4t-4.54-11.85q0-7.87,4.54-11.91t12.67-4h15.15c3.56,0,6.27.84,8.15,2.52s2.82,4.07,2.82,7.18q0,9.51-11,9.51H290Q291.26,37,297.74,37h24.54v7Zm0-24.85q-6.24,0-7.7,5.27h22.43a2.52,2.52,0,0,0,1.91-.73,2.78,2.78,0,0,0,.69-2,2.27,2.27,0,0,0-2.6-2.54Z"/><path class="cls-1" d="M345.31,43.94q-8.12,0-12.66-4T328.1,28.06q0-7.87,4.55-11.91t12.66-4h20.3v7h-20.3a8,8,0,0,0-6,2.18q-2.08,2.19-2.09,6.79t2.09,6.73a8,8,0,0,0,6,2.18h20.91v7Z"/><path class="cls-1" d="M370.76,43.63V.3h8.79V12.42H398q5.34,0,7.79,2.64A9.77,9.77,0,0,1,408.22,22V43.63h-8.79V23c0-2.42-1.21-3.64-3.64-3.64H379.55V43.63Z"/><polygon class="cls-2" points="37.34 6.59 30.75 0 8.79 0 2.2 6.59 2.2 17.57 8.79 24.16 24.17 24.16 26.36 26.36 26.36 37.34 24.16 39.54 15.38 39.54 6.59 30.75 0 37.34 6.59 43.94 28.56 43.94 35.15 37.34 35.15 26.36 28.57 19.77 13.18 19.77 10.98 17.57 10.98 6.59 13.18 4.39 21.98 4.39 30.75 13.18 37.34 6.59"/><polygon class="cls-2" points="39.54 6.59 50.53 6.59 52.72 8.79 52.72 43.94 61.51 43.94 61.51 6.59 54.92 0 32.95 0 39.54 6.59"/><polygon class="cls-2" points="57.12 0 63.71 6.59 76.89 6.59 76.89 0 57.12 0"/></g></g></svg>