<svg xmlns="http://www.w3.org/2000/svg" viewBox="0 0 222.87 222.87"><defs><style>.cls-1{fill:#fe6e00;}.cls-2{fill:#fff;}</style></defs><g id="Слой_2" data-name="Слой 2"><g id="Слой_4" data-name="Слой 4"><circle class="cls-1" cx="111.43" cy="111.43" r="111.43"/><polygon class="cls-2" points="109.05 78.1 94.77 63.81 47.15 63.81 32.86 78.1 32.86 101.91 47.15 116.2 80.5 116.2 85.24 120.96 85.24 144.77 80.48 149.53 61.43 149.53 42.38 130.48 28.1 144.77 42.38 159.06 90 159.06 104.29 144.77 104.29 120.96 90.04 106.67 56.67 106.67 51.91 101.91 51.91 78.1 56.67 73.34 75.75 73.34 94.77 92.39 109.05 78.1"/><polygon class="cls-2" points="113.81 78.1 137.63 78.1 142.39 82.86 142.39 159.06 161.44 159.06 161.44 78.1 147.15 63.81 99.53 63.81 113.81 78.1"/><polygon class="cls-2" points="151.91 63.81 166.2 78.1 194.77 78.1 194.77 63.81 151.91 63.81"/></g></g></svg>