<svg xmlns="http://www.w3.org/2000/svg" viewBox="0 0 400.96 57.74"><defs><style>.cls-1{fill:#fe7f00;}.cls-2{fill:#fff;}</style></defs><g id="Слой_2" data-name="Слой 2"><g id="Слой_4" data-name="Слой 4"><path class="cls-1" d="M12.28,34a.87.87,0,0,0,.59.24h20.3l2.26,2.26v8.93l-2.26,2.26H19.79l-8.23-8.19a1.7,1.7,0,0,0,.07-.46,1.75,1.75,0,1,0-1.75,1.75,1.77,1.77,0,0,0,.52-.09l8.46,8.41a.82.82,0,0,0,.59.24H33.51a.82.82,0,0,0,.59-.24l2.75-2.75a.85.85,0,0,0,.24-.59V36.14a.85.85,0,0,0-.24-.59L34.1,32.8a.82.82,0,0,0-.59-.24H13.22L6.84,26.18V9l6.38-6.39H35.91l7.69,7.69a1.78,1.78,0,0,0-.11.61,1.75,1.75,0,1,0,1.74-1.74,1.5,1.5,0,0,0-.37,0l-8-8A.87.87,0,0,0,36.26,1H12.87a.87.87,0,0,0-.59.24L5.41,8.07a.87.87,0,0,0-.24.59V26.52a.87.87,0,0,0,.24.59Z"/><path class="cls-1" d="M39.6,24.56a.83.83,0,0,0-.59-.25H18.71l-2.26-2.26V13.13l2.26-2.26h8.88l7.82,7.77a1.42,1.42,0,0,0-.06.42,1.75,1.75,0,1,0,1.74-1.75,1.68,1.68,0,0,0-.55.1l-8-8a.87.87,0,0,0-.59-.24H18.37a.82.82,0,0,0-.59.25L15,12.19a.87.87,0,0,0-.24.59V22.4A.87.87,0,0,0,15,23l2.75,2.75a.85.85,0,0,0,.59.24H38.66L45,32.36V49.53l-6.35,6.38H11.47l-8.11-8.1a1.74,1.74,0,1,0-1.61,1.1,1.65,1.65,0,0,0,.32,0l8.46,8.46a.83.83,0,0,0,.59.25H39a.83.83,0,0,0,.59-.25l6.83-6.87a.82.82,0,0,0,.25-.59V32a.82.82,0,0,0-.25-.59Z"/><path class="cls-1" d="M5.67,45a1.86,1.86,0,0,0,.63-.12l8.36,8.35a.79.79,0,0,0,.58.25h21a.83.83,0,0,0,.59-.25L41,49.09a.82.82,0,0,0,.24-.59V33.39A.82.82,0,0,0,41,32.8l-4.12-4.12a.82.82,0,0,0-.59-.24H16L12.33,24.8V10.38L16,6.75H31.79l7.65,7.65a1.77,1.77,0,0,0-.16.73A1.75,1.75,0,1,0,41,13.39l-.21,0L32.73,5.32a.87.87,0,0,0-.59-.24H15.62a.87.87,0,0,0-.59.24L10.91,9.45a.79.79,0,0,0-.24.59V25.15a.82.82,0,0,0,.24.59L15,29.86a.87.87,0,0,0,.59.24H35.91l3.64,3.63V48.16l-3.64,3.63H15.59L7.38,43.58a2,2,0,0,0,0-.35A1.75,1.75,0,1,0,5.67,45Z"/><path class="cls-1" d="M67.05,54.47V12.78a.87.87,0,0,0-.24-.59L64.06,9.45a.83.83,0,0,0-.59-.25H52.82a1.74,1.74,0,1,0-1.56,2.52,1.72,1.72,0,0,0,1.49-.85H63.13l2.26,2.26V54.47a1.74,1.74,0,1,0,1.66,0Z"/><path class="cls-1" d="M73.92,54.47V12.78a.87.87,0,0,0-.24-.59L66.81,5.32a.87.87,0,0,0-.59-.24H48.7a1.75,1.75,0,1,0-.06,1.67H65.87l6.39,6.38V54.47A1.72,1.72,0,0,0,71.34,56a1.75,1.75,0,1,0,2.58-1.52Z"/><path class="cls-1" d="M80.82,54.47l0-41.69a.87.87,0,0,0-.24-.59l-11-11A.87.87,0,0,0,69,1H44.58A1.74,1.74,0,1,0,43,3.49a1.73,1.73,0,0,0,1.5-.87H68.62l10.5,10.51,0,41.34a1.75,1.75,0,1,0,1.66,0Z"/><path class="cls-1" d="M109.37,9.45l-4-4a.83.83,0,0,0-.59-.25H79.12l-2.43-2.6H99.1A1.75,1.75,0,1,0,99.15,1H74.78a.85.85,0,0,0-.77.5.83.83,0,0,0,.16.9l4,4.26a.84.84,0,0,0,.61.27h25.72l2.3,2.31H84.51a1.74,1.74,0,1,0-.06,1.67h24.32a.83.83,0,0,0,.77-.51A.85.85,0,0,0,109.37,9.45Z"/><path class="cls-2" d="M137.17,56.86a30.13,30.13,0,0,1-7.59-2.32V46.23a36.27,36.27,0,0,0,8,2.75,38.42,38.42,0,0,0,8.23.91c3.4,0,6-.63,7.77-1.91a6.1,6.1,0,0,0,2.67-5.25A6.21,6.21,0,0,0,155,38.8a10.37,10.37,0,0,0-3.59-2.74q-2.35-1.19-7.24-3.09-7.47-3-10.82-6.78a13.43,13.43,0,0,1-3.35-9.3A13,13,0,0,1,132.4,9.2,15.24,15.24,0,0,1,139,4a24.76,24.76,0,0,1,9.83-1.83,41,41,0,0,1,8.12.73,33.31,33.31,0,0,1,7,2.25v8.07A30.62,30.62,0,0,0,150.54,10c-3.25,0-5.77.6-7.54,1.79a5.77,5.77,0,0,0-2.67,5.07,5.83,5.83,0,0,0,1.22,3.85,10,10,0,0,0,3.24,2.52c1.34.68,3.77,1.76,7.27,3.23a46.85,46.85,0,0,1,8.43,4.35,14.6,14.6,0,0,1,4.64,5,14.36,14.36,0,0,1,1.57,7q0,7.1-5.11,11T146.5,57.74A49.32,49.32,0,0,1,137.17,56.86Z"/><path class="cls-2" d="M181.82,55.42a17.35,17.35,0,0,1-7.5-6.71,19.6,19.6,0,0,1-2.67-10.4,19.54,19.54,0,0,1,2.63-10.25,17.52,17.52,0,0,1,7.51-6.79,27.61,27.61,0,0,1,22.52,0,17.9,17.9,0,0,1,7.5,6.79,19.28,19.28,0,0,1,2.67,10.25,19.6,19.6,0,0,1-2.67,10.4,17.41,17.41,0,0,1-7.5,6.71,28.41,28.41,0,0,1-22.49,0Zm19.63-8.54a12,12,0,0,0,3.12-8.57q0-5.56-3.08-8.73a12.81,12.81,0,0,0-16.85,0q-3.07,3.17-3.08,8.73a12,12,0,0,0,3.12,8.57,12.28,12.28,0,0,0,16.77,0Z"/><path class="cls-2" d="M222.1.28h9.6V56.6h-9.6Z"/><path class="cls-2" d="M252,11.33H235.89v-8h41.84v8H261.65V56.6H252Z"/><path class="cls-2" d="M279.48,52.63q-5.94-5.1-5.94-14.25,0-9,5.26-14.25t15-5.26a22.9,22.9,0,0,1,10.94,2.44A16.38,16.38,0,0,1,311.57,28a20,20,0,0,1,2.28,9.64V42H282.68q1,8.16,14.18,8.15a44.16,44.16,0,0,0,7.16-.6,32.58,32.58,0,0,0,6.4-1.68V55.3a31.22,31.22,0,0,1-6.66,1.75,48.65,48.65,0,0,1-8.12.69Q285.42,57.74,279.48,52.63Zm25.31-17.14a8.58,8.58,0,0,0-3.09-6.71q-2.94-2.36-8-2.36c-3.35,0-6,.81-7.93,2.44a8.67,8.67,0,0,0-3.05,6.63Z"/><path class="cls-2" d="M330.12,55.45a17.18,17.18,0,0,1-7.5-6.63A19.53,19.53,0,0,1,320,38.38a19.54,19.54,0,0,1,2.71-10.48,17.55,17.55,0,0,1,7.54-6.7,25.88,25.88,0,0,1,11.32-2.33q8.53,0,13.64,3.36v7.69q-4.95-3.5-12.65-3.5-5.86,0-9.34,2.93t-3.47,9q0,6,3.47,8.92t9.19,2.89a23.58,23.58,0,0,0,13.26-3.65v7.62a19.78,19.78,0,0,1-6.21,2.7,32.8,32.8,0,0,1-8,.88A26,26,0,0,1,330.12,55.45Z"/><path class="cls-2" d="M363.24.28h9.6V24.67a17.16,17.16,0,0,1,13.41-5.8q7.39,0,11.05,4T401,33.5V56.6h-9.6V34.42q0-8-7.47-8A12.8,12.8,0,0,0,377.72,28a13.08,13.08,0,0,0-4.88,4.69V56.6h-9.6Z"/></g></g></svg>