<svg xmlns="http://www.w3.org/2000/svg" viewBox="0 0 408.22 82.17"><defs><style>.cls-1{fill:#fff;}</style></defs><g id="Слой_2" data-name="Слой 2"><g id="Слой_4" data-name="Слой 4"><path class="cls-1" d="M143.87,82.17V75.36l30.12,0a5.25,5.25,0,0,0,3.54-1.07,4.41,4.41,0,0,0,1.23-3.48,4.42,4.42,0,0,0-1.23-3.49A5.25,5.25,0,0,0,174,66.3H155.24q-5.82,0-9-2.81T143,55.24q0-5.44,3.22-8.25t9-2.8h29.44V51l-28.55,0a5.4,5.4,0,0,0-3.51,1,4,4,0,0,0-1.26,3.27,4,4,0,0,0,1.26,3.28,5.4,5.4,0,0,0,3.51,1h18.75q5.82,0,9,2.85t3.22,8.47q0,5.55-3.22,8.43t-9,2.88Z"/><path class="cls-1" d="M205.42,82.17q-7,0-10.95-3.48t-3.92-10.24q0-6.83,3.92-10.3t10.95-3.48h9.7q7,0,10.94,3.48T230,68.45q0,6.75-3.93,10.24t-10.94,3.48Zm0-6h9.7a6.88,6.88,0,0,0,5.21-1.89c1.2-1.26,1.81-3.2,1.81-5.81s-.61-4.61-1.81-5.87a6.88,6.88,0,0,0-5.21-1.89h-9.7a6.88,6.88,0,0,0-5.21,1.89c-1.2,1.26-1.81,3.21-1.81,5.87s.61,4.55,1.81,5.81A6.88,6.88,0,0,0,205.42,76.15Z"/><path class="cls-1" d="M234.71,81.91V44.45h7.6V81.91Z"/><path class="cls-1" d="M247.54,63.42v-19h46.1v19h-8.48V51.26H273.74V81.91h-8.38V51.26H256V63.42Z"/><path class="cls-1" d="M312.71,82.17q-7,0-10.95-3.48t-3.92-10.24q0-6.83,3.92-10.3t10.95-3.48h13.1q4.6,0,7.05,2.17a7.9,7.9,0,0,1,2.43,6.21q0,8.22-9.48,8.22H306c.73,3.25,3,4.88,6.7,4.88h21.22v6Zm0-21.48q-5.38,0-6.65,4.56h19.38a2.17,2.17,0,0,0,1.65-.63,2.37,2.37,0,0,0,.61-1.73,2,2,0,0,0-2.26-2.2Z"/><path class="cls-1" d="M353.84,82.17q-7,0-10.95-3.48T339,68.45q0-6.83,3.93-10.3t10.95-3.48h17.55v6H353.84a6.86,6.86,0,0,0-5.21,1.89c-1.21,1.26-1.81,3.21-1.81,5.87s.6,4.55,1.81,5.81a6.86,6.86,0,0,0,5.21,1.89h18.07v6Z"/><path class="cls-1" d="M375.84,81.91V44.45h7.6V54.93h15.92q4.62,0,6.73,2.28a8.43,8.43,0,0,1,2.13,6v18.7h-7.6V64.1q0-3.15-3.14-3.15h-14v21Z"/><path class="cls-1" d="M155.64,13.45,150,7.78a1.19,1.19,0,0,0-.84-.35H112.6l-3.46-3.69H141a2.49,2.49,0,1,0,.07-2.37H106.42a1.18,1.18,0,0,0-.87,2l5.66,6.06a1.2,1.2,0,0,0,.87.38h36.61L152,13.1H120.27a2.46,2.46,0,0,0-2.21-1.39,2.49,2.49,0,1,0,2.12,3.76H154.8a1.18,1.18,0,0,0,1.09-.73A1.16,1.16,0,0,0,155.64,13.45Z"/><path class="cls-1" d="M56.35,35a1.19,1.19,0,0,0-.84-.35H26.63l-3.22-3.21V18.68l3.22-3.21H39.26l11.13,11a2.48,2.48,0,1,0,2.4-1.88,2.57,2.57,0,0,0-.79.14L40.59,13.44a1.21,1.21,0,0,0-.84-.34H26.14a1.18,1.18,0,0,0-.84.34l-3.91,3.91a1.21,1.21,0,0,0-.35.84V31.88a1.18,1.18,0,0,0,.35.83l3.91,3.91a1.15,1.15,0,0,0,.84.35H55l9,9.08V70.49l-9,9.08H16.32L4.79,68A2.48,2.48,0,1,0,2.48,69.6a2.42,2.42,0,0,0,.47,0l12,12a1.19,1.19,0,0,0,.84.35H55.51a1.19,1.19,0,0,0,.84-.35l9.73-9.78a1.18,1.18,0,0,0,.35-.83V45.56a1.18,1.18,0,0,0-.35-.83Z"/><path class="cls-1" d="M95.42,77.52V18.19a1.21,1.21,0,0,0-.34-.84l-3.91-3.91a1.21,1.21,0,0,0-.84-.34H75.17a2.48,2.48,0,1,0-.09,2.37H89.84l3.21,3.21V77.52a2.49,2.49,0,1,0,2.37,0Z"/><path class="cls-1" d="M105.2,77.52V18.19a1.22,1.22,0,0,0-.35-.84L95.08,7.58a1.22,1.22,0,0,0-.84-.35H69.3a2.48,2.48,0,1,0-.08,2.37H93.75l9.08,9.08V77.52a2.49,2.49,0,1,0,2.37,0Z"/><path class="cls-1" d="M115,77.52l0-59.33a1.2,1.2,0,0,0-.34-.84L99,1.71a1.21,1.21,0,0,0-.84-.34H63.44a2.48,2.48,0,1,0-.07,2.37H97.66L112.6,18.68l.05,58.84a2.49,2.49,0,1,0,2.37,0Z"/><path class="cls-1" d="M8.07,64a2.44,2.44,0,0,0,.9-.17L20.86,75.73a1.17,1.17,0,0,0,.83.34H51.6a1.18,1.18,0,0,0,.84-.34l5.86-5.87a1.15,1.15,0,0,0,.35-.84V47.52a1.15,1.15,0,0,0-.35-.84l-5.86-5.87a1.18,1.18,0,0,0-.84-.34H22.72L17.55,35.3V14.77L22.72,9.6H45.25L56.13,20.49a2.45,2.45,0,0,0-.24,1.05,2.49,2.49,0,1,0,2.49-2.49,2.77,2.77,0,0,0-.3,0L46.57,7.58a1.18,1.18,0,0,0-.83-.35H22.23a1.19,1.19,0,0,0-.84.35l-5.86,5.86a1.18,1.18,0,0,0-.35.84V35.79a1.14,1.14,0,0,0,.35.83l5.86,5.87a1.19,1.19,0,0,0,.84.35H51.11L56.28,48V68.53L51.11,73.7H22.18L10.51,62a2.63,2.63,0,0,0,.05-.49A2.49,2.49,0,1,0,8.07,64Z"/><path class="cls-1" d="M64.37,13.06a2.18,2.18,0,0,0-.52.06L52.44,1.71a1.18,1.18,0,0,0-.84-.34H18.32a1.18,1.18,0,0,0-.84.34L7.71,11.49a1.15,1.15,0,0,0-.35.84V37.74a1.15,1.15,0,0,0,.35.84l9.77,9.77a1.15,1.15,0,0,0,.84.35H47.2l3.22,3.22v12.7L47.2,67.84h-19L16.45,56.19a2.38,2.38,0,0,0,.1-.65A2.49,2.49,0,1,0,14.06,58a2.55,2.55,0,0,0,.74-.12l12,12a1.22,1.22,0,0,0,.84.35h20a1.19,1.19,0,0,0,.84-.35L52.44,66a1.19,1.19,0,0,0,.35-.84V51.43a1.19,1.19,0,0,0-.35-.84l-3.91-3.91a1.19,1.19,0,0,0-.84-.35H18.81L9.73,37.25V12.82l9.08-9.08h32.3L62.05,14.68a2.48,2.48,0,1,0,2.32-1.62Z"/></g></g></svg>