<svg xmlns="http://www.w3.org/2000/svg" viewBox="0 0 149.22 126.48"><defs><style>.cls-1{fill:#fff;}</style></defs><g id="Слой_2" data-name="Слой 2"><g id="Слой_4" data-name="Слой 4"><path class="cls-1" d="M.69,126.48v-3.82l16.91,0a2.88,2.88,0,0,0,2-.61,2.46,2.46,0,0,0,.69-2,2.5,2.5,0,0,0-.69-2,2.93,2.93,0,0,0-2-.6H7.07A7.49,7.49,0,0,1,2,116a6.83,6.83,0,0,1,0-9.26,7.49,7.49,0,0,1,5.07-1.57H23.59V109l-16,0a3.06,3.06,0,0,0-2,.57,2.77,2.77,0,0,0,0,3.68,3.06,3.06,0,0,0,2,.57H18.1a7.39,7.39,0,0,1,5.07,1.6,7.11,7.11,0,0,1,0,9.48,7.35,7.35,0,0,1-5.07,1.62Z"/><path class="cls-1" d="M35.24,126.48a8.92,8.92,0,0,1-6.15-2,8.64,8.64,0,0,1,0-11.52,9,9,0,0,1,6.15-2h5.43a9,9,0,0,1,6.15,2,8.64,8.64,0,0,1,0,11.52,8.92,8.92,0,0,1-6.15,2Zm0-3.38h5.43A3.86,3.86,0,0,0,43.6,122a4.55,4.55,0,0,0,1-3.26,4.62,4.62,0,0,0-1-3.3,3.89,3.89,0,0,0-2.93-1H35.24a3.89,3.89,0,0,0-2.93,1,4.62,4.62,0,0,0-1,3.3,4.55,4.55,0,0,0,1,3.26A3.86,3.86,0,0,0,35.24,123.1Z"/><path class="cls-1" d="M51.67,126.33v-21h4.26v21Z"/><path class="cls-1" d="M58.87,116V105.31H84.74V116H80v-6.82H73.57v17.2h-4.7v-17.2H63.63V116Z"/><path class="cls-1" d="M95.44,126.48a8.9,8.9,0,0,1-6.14-2,8.61,8.61,0,0,1,0-11.52,9,9,0,0,1,6.14-2h7.35a5.72,5.72,0,0,1,3.95,1.23,4.42,4.42,0,0,1,1.37,3.48c0,3.08-1.77,4.61-5.32,4.61H91.68q.61,2.74,3.76,2.74h11.91v3.38Zm0-12q-3,0-3.73,2.55h10.87a1.21,1.21,0,0,0,.93-.35,1.36,1.36,0,0,0,.34-1,1.1,1.1,0,0,0-1.27-1.23Z"/><path class="cls-1" d="M118.52,126.48a8.92,8.92,0,0,1-6.15-2,8.64,8.64,0,0,1,0-11.52,9,9,0,0,1,6.15-2h9.84v3.39h-9.84a3.89,3.89,0,0,0-2.93,1,4.67,4.67,0,0,0-1,3.3,4.6,4.6,0,0,0,1,3.26,3.86,3.86,0,0,0,2.93,1.06h10.14v3.38Z"/><path class="cls-1" d="M130.86,126.33v-21h4.27v5.88h8.93a5,5,0,0,1,3.78,1.28,4.77,4.77,0,0,1,1.19,3.37v10.49h-4.26v-10a1.56,1.56,0,0,0-1.77-1.77h-7.87v11.76Z"/><polygon class="cls-1" points="72.48 12.79 59.69 0 17.05 0 4.26 12.79 4.26 34.11 17.05 46.9 46.91 46.9 51.16 51.16 51.16 72.48 46.9 76.74 29.84 76.74 12.79 59.69 0 72.48 12.79 85.27 55.43 85.27 68.22 72.48 68.22 51.16 55.45 38.37 25.58 38.37 21.32 34.11 21.32 12.79 25.58 8.53 42.66 8.53 59.69 25.58 72.48 12.79"/><polygon class="cls-1" points="76.74 12.79 98.06 12.79 102.33 17.05 102.33 85.27 119.38 85.27 119.38 12.79 106.59 0 63.95 0 76.74 12.79"/><polygon class="cls-1" points="110.85 0 123.64 12.79 149.22 12.79 149.22 0 110.85 0"/></g></g></svg>