<svg xmlns="http://www.w3.org/2000/svg" viewBox="0 0 161.87 85.27"><defs><style>.cls-1{fill:#fff;}</style></defs><g id="Слой_2" data-name="Слой 2"><g id="Слой_4" data-name="Слой 4"><path class="cls-1" d="M161.51,14l-5.83-5.87a1.19,1.19,0,0,0-.87-.37h-38l-3.58-3.83h33.09a2.58,2.58,0,1,0,.08-2.46h-36a1.24,1.24,0,0,0-1.13.74,1.25,1.25,0,0,0,.23,1.33l5.88,6.29a1.23,1.23,0,0,0,.9.39h38l3.39,3.42H124.81a2.57,2.57,0,1,0-.09,2.46h35.92a1.23,1.23,0,0,0,.87-2.1Z"/><path class="cls-1" d="M58.48,36.27a1.24,1.24,0,0,0-.87-.36h-30L24.3,32.57V19.39l3.33-3.34H40.74L52.29,27.52a2.57,2.57,0,1,0,2.49-1.95,2.48,2.48,0,0,0-.82.15L42.12,14a1.23,1.23,0,0,0-.87-.36H27.13a1.23,1.23,0,0,0-.87.36L22.2,18a1.23,1.23,0,0,0-.36.87v14.2a1.23,1.23,0,0,0,.36.87L26.26,38a1.23,1.23,0,0,0,.87.36h30l9.37,9.42V73.15L57.1,82.57H16.94L5,70.6a2.47,2.47,0,0,0,.18-.95,2.58,2.58,0,1,0-2.57,2.58,2.52,2.52,0,0,0,.48,0l12.5,12.49a1.23,1.23,0,0,0,.87.36H57.61a1.24,1.24,0,0,0,.87-.36L68.57,74.52a1.22,1.22,0,0,0,.36-.86V47.28a1.24,1.24,0,0,0-.36-.87Z"/><path class="cls-1" d="M99,80.44V18.88a1.23,1.23,0,0,0-.36-.87l-4-4.06a1.24,1.24,0,0,0-.87-.36H78a2.57,2.57,0,1,0-.09,2.46H93.23l3.33,3.34V80.44a2.58,2.58,0,1,0,2.46,0Z"/><path class="cls-1" d="M109.17,80.44V18.88a1.23,1.23,0,0,0-.36-.87L98.66,7.86a1.23,1.23,0,0,0-.87-.36H71.92a2.57,2.57,0,1,0-2.29,3.73A2.54,2.54,0,0,0,71.83,10H97.28l9.43,9.43V80.44a2.58,2.58,0,1,0,2.46,0Z"/><path class="cls-1" d="M119.36,80.44l0-61.56A1.23,1.23,0,0,0,119,18L102.72,1.78a1.23,1.23,0,0,0-.87-.36h-36a2.57,2.57,0,1,0-.08,2.46h35.58l15.51,15.51.05,61.05a2.58,2.58,0,1,0,2.46,0Z"/><path class="cls-1" d="M8.38,66.43a2.61,2.61,0,0,0,.93-.18L21.64,78.58a1.24,1.24,0,0,0,.87.36h31a1.23,1.23,0,0,0,.87-.36L60.5,72.5a1.21,1.21,0,0,0,.37-.87V49.31a1.19,1.19,0,0,0-.37-.87l-6.08-6.09a1.23,1.23,0,0,0-.87-.36h-30l-5.37-5.36V15.33L23.58,10H47l11.3,11.3A2.64,2.64,0,0,0,58,22.35a2.58,2.58,0,1,0,2.58-2.58,3,3,0,0,0-.31,0L48.33,7.86a1.23,1.23,0,0,0-.87-.36H23.07a1.23,1.23,0,0,0-.87.36L16.11,14a1.23,1.23,0,0,0-.36.87V37.14a1.24,1.24,0,0,0,.36.87l6.09,6.08a1.23,1.23,0,0,0,.87.36H53l5.37,5.37v21.3L53,76.48H23L10.9,64.36a2.1,2.1,0,0,0,0-.51,2.58,2.58,0,1,0-2.57,2.58Z"/><path class="cls-1" d="M66.8,13.55a3.31,3.31,0,0,0-.55.06L54.42,1.78a1.23,1.23,0,0,0-.87-.36H19a1.23,1.23,0,0,0-.87.36L8,11.92a1.23,1.23,0,0,0-.36.87V39.17A1.26,1.26,0,0,0,8,40L18.14,50.18a1.23,1.23,0,0,0,.87.36H49l3.34,3.34V67.06L49,70.4H29.23L17.07,58.31a2.54,2.54,0,0,0,.1-.68,2.58,2.58,0,1,0-2.58,2.58,2.44,2.44,0,0,0,.77-.13L27.86,72.5a1.22,1.22,0,0,0,.86.36H49.49a1.23,1.23,0,0,0,.87-.36l4.06-4.06a1.23,1.23,0,0,0,.36-.87V53.37a1.23,1.23,0,0,0-.36-.87l-4.06-4.06a1.23,1.23,0,0,0-.87-.36h-30L10.1,38.66V13.3l9.42-9.42H53L64.39,15.23a2.66,2.66,0,0,0-.17.9,2.58,2.58,0,1,0,2.58-2.58Z"/></g></g></svg>