<svg xmlns="http://www.w3.org/2000/svg" viewBox="0 0 213.18 213.18"><defs><style>.cls-1{fill:#fe6e00;}.cls-2{fill:#fff;}</style></defs><g id="Слой_2" data-name="Слой 2"><g id="Слой_4" data-name="Слой 4"><circle class="cls-1" cx="106.59" cy="106.59" r="106.59"/><path class="cls-2" d="M37.68,161.66V158.1l15.76,0a2.76,2.76,0,0,0,1.85-.56,2.36,2.36,0,0,0,.64-1.83,2.34,2.34,0,0,0-.64-1.82,2.76,2.76,0,0,0-1.85-.56H43.62a7,7,0,0,1-4.72-1.47,6.35,6.35,0,0,1,0-8.63,7,7,0,0,1,4.72-1.47H59v3.57l-14.94,0a2.88,2.88,0,0,0-1.84.53,2.59,2.59,0,0,0,0,3.43,2.82,2.82,0,0,0,1.84.53H53.9a6.87,6.87,0,0,1,4.73,1.5,6.65,6.65,0,0,1,0,8.84,6.87,6.87,0,0,1-4.73,1.5Z"/><path class="cls-2" d="M69.88,161.66a8.32,8.32,0,0,1-5.73-1.82,8.06,8.06,0,0,1,0-10.74,8.32,8.32,0,0,1,5.73-1.82H75a8.32,8.32,0,0,1,5.73,1.82,8.06,8.06,0,0,1,0,10.74A8.32,8.32,0,0,1,75,161.66Zm0-3.15H75a3.6,3.6,0,0,0,2.73-1,4.24,4.24,0,0,0,.94-3,4.31,4.31,0,0,0-.94-3.07,3.63,3.63,0,0,0-2.73-1H69.88a3.63,3.63,0,0,0-2.73,1,4.31,4.31,0,0,0-.94,3.07,4.24,4.24,0,0,0,.94,3A3.6,3.6,0,0,0,69.88,158.51Z"/><path class="cls-2" d="M85.2,161.53v-19.6h4v19.6Z"/><path class="cls-2" d="M91.91,151.85v-9.92H116v9.92h-4.44v-6.36h-6v16h-4.39v-16H96.35v6.36Z"/><path class="cls-2" d="M126,161.66a8.32,8.32,0,0,1-5.73-1.82,8,8,0,0,1,0-10.74,8.32,8.32,0,0,1,5.73-1.82h6.85a5.33,5.33,0,0,1,3.68,1.13,4.13,4.13,0,0,1,1.28,3.25c0,2.87-1.66,4.3-5,4.3H122.5q.57,2.55,3.51,2.55h11.1v3.15Zm0-11.23c-1.89,0-3.05.79-3.48,2.38h10.14a1.14,1.14,0,0,0,.86-.33,1.25,1.25,0,0,0,.31-.9,1,1,0,0,0-1.17-1.15Z"/><path class="cls-2" d="M147.52,161.66a8.32,8.32,0,0,1-5.73-1.82,8.06,8.06,0,0,1,0-10.74,8.32,8.32,0,0,1,5.73-1.82h9.18v3.15h-9.18a3.63,3.63,0,0,0-2.73,1,4.31,4.31,0,0,0-.94,3.07,4.24,4.24,0,0,0,.94,3,3.6,3.6,0,0,0,2.73,1H157v3.15Z"/><path class="cls-2" d="M159,161.53v-19.6h4v5.48h8.34a4.63,4.63,0,0,1,3.52,1.19,4.45,4.45,0,0,1,1.11,3.14v9.79h-4v-9.32a1.45,1.45,0,0,0-1.64-1.65H163v11Z"/><polygon class="cls-2" points="104.84 64.78 94.34 54.28 59.33 54.28 48.83 64.78 48.83 82.28 59.33 92.79 83.85 92.79 87.34 96.29 87.34 113.79 83.84 117.29 69.83 117.29 55.83 103.29 45.33 113.79 55.83 124.29 90.84 124.29 101.34 113.79 101.34 96.29 90.86 85.78 66.33 85.78 62.83 82.28 62.83 64.78 66.33 61.28 80.36 61.28 94.34 75.28 104.84 64.78"/><polygon class="cls-2" points="108.34 64.78 125.84 64.78 129.34 68.28 129.34 124.29 143.34 124.29 143.34 64.78 132.84 54.28 97.84 54.28 108.34 64.78"/><polygon class="cls-2" points="136.34 54.28 146.84 64.78 167.85 64.78 167.85 54.28 136.34 54.28"/></g></g></svg>