<svg xmlns="http://www.w3.org/2000/svg" viewBox="0 0 213.18 213.18"><defs><style>.cls-1{fill:#fe6e00;}.cls-2{fill:#fff;}</style></defs><g id="Слой_2" data-name="Слой 2"><g id="Слой_4" data-name="Слой 4"><circle class="cls-1" cx="106.59" cy="106.59" r="106.59"/><path class="cls-2" d="M40.57,162.94v-3.41l15.1,0a2.6,2.6,0,0,0,1.77-.54,2.19,2.19,0,0,0,.62-1.74,2.22,2.22,0,0,0-.62-1.75,2.6,2.6,0,0,0-1.77-.54h-9.4a6.68,6.68,0,0,1-4.53-1.4,6.12,6.12,0,0,1,0-8.27,6.68,6.68,0,0,1,4.53-1.41H61v3.42l-14.31,0a2.71,2.71,0,0,0-1.76.51,2,2,0,0,0-.63,1.64,2,2,0,0,0,.63,1.65,2.71,2.71,0,0,0,1.76.51h9.4A6.54,6.54,0,0,1,60.64,153a6.35,6.35,0,0,1,0,8.47,6.54,6.54,0,0,1-4.52,1.44Z"/><path class="cls-2" d="M71.42,162.94a8,8,0,0,1-5.49-1.75,6.49,6.49,0,0,1-2-5.13,6.56,6.56,0,0,1,2-5.16,8,8,0,0,1,5.49-1.74h4.86a8,8,0,0,1,5.49,1.74,6.56,6.56,0,0,1,2,5.16,6.49,6.49,0,0,1-2,5.13,8,8,0,0,1-5.49,1.75Zm0-3h4.86a3.4,3.4,0,0,0,2.61-.95,4,4,0,0,0,.91-2.91,4.09,4.09,0,0,0-.91-2.94,3.44,3.44,0,0,0-2.61-1H71.42a3.44,3.44,0,0,0-2.61,1,4.14,4.14,0,0,0-.91,2.94,4.09,4.09,0,0,0,.91,2.91A3.4,3.4,0,0,0,71.42,159.92Z"/><path class="cls-2" d="M86.1,162.81V144h3.81v18.77Z"/><path class="cls-2" d="M92.53,153.54V144h23.1v9.5h-4.25v-6.09h-5.72v15.36h-4.2V147.45H96.78v6.09Z"/><path class="cls-2" d="M125.19,162.94a8,8,0,0,1-5.49-1.75,6.49,6.49,0,0,1-2-5.13,6.56,6.56,0,0,1,2-5.16,8,8,0,0,1,5.49-1.74h6.56a5.11,5.11,0,0,1,3.53,1.09,3.92,3.92,0,0,1,1.23,3.11c0,2.74-1.59,4.12-4.76,4.12h-9.92c.37,1.63,1.49,2.44,3.36,2.44h10.63v3Zm0-10.77a3.05,3.05,0,0,0-3.33,2.29h9.71a1.1,1.1,0,0,0,.83-.32,1.2,1.2,0,0,0,.3-.86,1,1,0,0,0-1.13-1.11Z"/><path class="cls-2" d="M145.8,162.94a8,8,0,0,1-5.49-1.75,6.49,6.49,0,0,1-2-5.13,6.56,6.56,0,0,1,2-5.16,8,8,0,0,1,5.49-1.74h8.79v3H145.8a3.44,3.44,0,0,0-2.61,1,4.09,4.09,0,0,0-.91,2.94,4,4,0,0,0,.91,2.91,3.4,3.4,0,0,0,2.61.95h9.06v3Z"/><path class="cls-2" d="M156.83,162.81V144h3.8v5.25h8a4.44,4.44,0,0,1,3.38,1.14,4.22,4.22,0,0,1,1.06,3v9.37h-3.81v-8.93a1.39,1.39,0,0,0-1.57-1.57h-7v10.5Z"/><path class="cls-2" d="M179.18,62.71,174,57.46a1.07,1.07,0,0,0-.78-.33H139.24L136,53.7h29.58a2.31,2.31,0,1,0,.07-2.19H133.51a1.1,1.1,0,0,0-1,.66,1.11,1.11,0,0,0,.21,1.19L138,59a1.08,1.08,0,0,0,.8.35h34l3,3.06H146.37a2.31,2.31,0,1,0-.09,2.2h32.11a1.11,1.11,0,0,0,.79-1.88Z"/><path class="cls-2" d="M87.06,82.66a1.1,1.1,0,0,0-.78-.32H59.49l-3-3V67.57l3-3H71.21L81.53,74.84a2.1,2.1,0,0,0-.08.56A2.34,2.34,0,1,0,83,73.23L72.44,62.71a1.1,1.1,0,0,0-.78-.32H59a1.06,1.06,0,0,0-.77.32l-3.63,3.63a1.06,1.06,0,0,0-.32.78V79.81a1.1,1.1,0,0,0,.32.78l3.63,3.63a1.1,1.1,0,0,0,.77.32h26.8L94.21,93v22.67l-8.38,8.43H49.92l-10.7-10.7a2.22,2.22,0,0,0,.17-.85,2.31,2.31,0,1,0-2.3,2.3,3,3,0,0,0,.43,0l11.17,11.16a1.11,1.11,0,0,0,.78.33H86.28a1.07,1.07,0,0,0,.78-.33l9-9.07a1.1,1.1,0,0,0,.32-.77V92.51a1.14,1.14,0,0,0-.32-.78Z"/><path class="cls-2" d="M123.31,122.15v-55a1.1,1.1,0,0,0-.32-.78l-3.63-3.63a1.08,1.08,0,0,0-.78-.32H104.52a2.31,2.31,0,1,0-.09,2.2h13.7l3,3v54.58a2.31,2.31,0,1,0,2.2,0Z"/><path class="cls-2" d="M132.38,122.15v-55a1.1,1.1,0,0,0-.32-.78L123,57.27a1.1,1.1,0,0,0-.78-.32H99.08a2.3,2.3,0,1,0-.08,2.2h22.76l8.42,8.42v54.58a2.3,2.3,0,1,0,2.2,0Z"/><path class="cls-2" d="M141.49,122.15l0-55a1.1,1.1,0,0,0-.32-.78L126.62,51.83a1.1,1.1,0,0,0-.78-.32H93.64a2.31,2.31,0,1,0-.07,2.19h31.81l13.87,13.87,0,54.59a2.3,2.3,0,1,0,2.2,0Z"/><path class="cls-2" d="M42.27,109.63a2.28,2.28,0,0,0,.83-.17l11,11a1.1,1.1,0,0,0,.78.32H82.66a1.06,1.06,0,0,0,.77-.32l5.45-5.44a1.1,1.1,0,0,0,.32-.78v-20a1.1,1.1,0,0,0-.32-.77L83.43,88.1a1.1,1.1,0,0,0-.77-.32H55.86L51.06,83v-19l4.8-4.79h20.9l10.1,10.1a2.23,2.23,0,0,0-.22,1,2.31,2.31,0,1,0,2.3-2.3l-.27,0L78,57.27a1.06,1.06,0,0,0-.78-.32H55.41a1.06,1.06,0,0,0-.78.32l-5.44,5.44a1.11,1.11,0,0,0-.33.78V83.44a1.11,1.11,0,0,0,.33.78l5.44,5.44a1.1,1.1,0,0,0,.78.32H82.2l4.8,4.8v19l-4.8,4.8H55.36L44.53,107.78a2.3,2.3,0,1,0-2.26,1.85Z"/><path class="cls-2" d="M94.5,62.36a2.44,2.44,0,0,0-.48,0L83.43,51.83a1.06,1.06,0,0,0-.77-.32H51.78a1.1,1.1,0,0,0-.78.32L41.93,60.9a1.1,1.1,0,0,0-.32.77V85.25a1.1,1.1,0,0,0,.32.78L51,95.1a1.1,1.1,0,0,0,.78.32H78.57l3,3v11.78l-3,3H60.92L50,102.37a2.1,2.1,0,0,0,.09-.61,2.3,2.3,0,1,0-2.3,2.31,2.27,2.27,0,0,0,.69-.12l11.17,11.1a1.06,1.06,0,0,0,.77.32H79a1.1,1.1,0,0,0,.78-.32l3.62-3.63a1.07,1.07,0,0,0,.33-.77V98a1.11,1.11,0,0,0-.33-.78l-3.62-3.62a1.11,1.11,0,0,0-.78-.33H52.23L43.81,84.8V62.13l8.42-8.43h30L92.35,63.85a2.24,2.24,0,0,0-.15.81,2.3,2.3,0,1,0,2.3-2.3Z"/></g></g></svg>