<svg xmlns="http://www.w3.org/2000/svg" viewBox="0 0 408.22 108.08"><defs><style>.cls-1{fill:#fe6e00;}.cls-2{fill:#fff;}</style></defs><g id="Слой_2" data-name="Слой 2"><g id="Слой_4" data-name="Слой 4"><path class="cls-1" d="M127.11,74.23V67l32,.06a5.53,5.53,0,0,0,3.76-1.15,4.67,4.67,0,0,0,1.31-3.7,4.67,4.67,0,0,0-1.31-3.7,5.58,5.58,0,0,0-3.76-1.15h-20q-6.18,0-9.61-3t-3.42-8.77q0-5.79,3.42-8.78t9.61-3h31.31v7.25L140.15,41a5.72,5.72,0,0,0-3.73,1.09,4.22,4.22,0,0,0-1.34,3.48,4.22,4.22,0,0,0,1.34,3.48,5.78,5.78,0,0,0,3.73,1.09h19.94q6.19,0,9.61,3t3.43,9q0,5.91-3.43,9t-9.61,3.06Z"/><path class="cls-1" d="M192.57,74.23q-7.47,0-11.64-3.7t-4.18-10.89q0-7.24,4.18-11T192.57,45h10.31c5,0,8.86,1.23,11.64,3.7s4.18,6.12,4.18,11-1.39,8.42-4.18,10.89-6.67,3.7-11.64,3.7Zm0-6.4h10.31a7.31,7.31,0,0,0,5.54-2q1.92-2,1.92-6.18t-1.92-6.24a7.31,7.31,0,0,0-5.54-2H192.57a7.31,7.31,0,0,0-5.54,2q-1.92,2-1.92,6.24T187,65.82A7.31,7.31,0,0,0,192.57,67.83Z"/><path class="cls-1" d="M223.71,74V34.12h8.08V74Z"/><path class="cls-1" d="M237.36,54.29V34.12h49V54.29h-9V41.37H265.21V74H256.3V41.37h-9.91V54.29Z"/><path class="cls-1" d="M306.66,74.23q-7.47,0-11.64-3.7t-4.18-10.89q0-7.24,4.18-11T306.66,45h13.93c3.27,0,5.76.77,7.49,2.31a8.37,8.37,0,0,1,2.59,6.6q0,8.74-10.08,8.75H299.53q1.17,5.17,7.13,5.18h22.56v6.4Zm0-22.84q-5.73,0-7.07,4.85H320.2a2.28,2.28,0,0,0,1.75-.67,2.53,2.53,0,0,0,.64-1.84,2.09,2.09,0,0,0-2.39-2.34Z"/><path class="cls-1" d="M350.39,74.23q-7.47,0-11.64-3.7t-4.18-10.89q0-7.24,4.18-11T350.39,45h18.66v6.4H350.39a7.31,7.31,0,0,0-5.54,2q-1.92,2-1.92,6.24t1.92,6.18a7.31,7.31,0,0,0,5.54,2h19.22v6.4Z"/><path class="cls-1" d="M373.79,74V34.12h8.08V45.26H398.8q4.9,0,7.16,2.43a9,9,0,0,1,2.26,6.38V74h-8.08V55c0-2.22-1.12-3.34-3.34-3.34H381.87V74Z"/><circle class="cls-1" cx="54.04" cy="54.04" r="54.04"/><polygon class="cls-2" points="53.03 39.9 46.97 33.84 26.78 33.84 20.72 39.9 20.72 50 26.78 56.06 40.92 56.06 42.93 58.08 42.93 68.17 40.91 70.19 32.84 70.19 24.76 62.12 18.7 68.17 24.76 74.23 44.95 74.23 51.01 68.17 51.01 58.08 44.97 52.02 30.82 52.02 28.8 50 28.8 39.9 30.82 37.88 38.91 37.88 46.97 45.96 53.03 39.9"/><polygon class="cls-2" points="55.05 39.9 65.15 39.9 67.17 41.92 67.17 74.23 75.24 74.23 75.24 39.9 69.18 33.84 48.99 33.84 55.05 39.9"/><polygon class="cls-2" points="71.2 33.84 77.26 39.9 89.38 39.9 89.38 33.84 71.2 33.84"/></g></g></svg>