<svg xmlns="http://www.w3.org/2000/svg" viewBox="0 0 213.18 213.18"><defs><style>.cls-1{fill:#fe6e00;}.cls-2{fill:#fff;}</style></defs><g id="Слой_2" data-name="Слой 2"><g id="Слой_4" data-name="Слой 4"><circle class="cls-1" cx="106.59" cy="106.59" r="106.59"/><path class="cls-2" d="M187.22,77.89,181.39,72a1.24,1.24,0,0,0-.87-.36h-38l-3.58-3.84h33.11a2.58,2.58,0,1,0,.08-2.46h-36a1.23,1.23,0,0,0-1.13.74,1.21,1.21,0,0,0,.23,1.33l5.88,6.3a1.23,1.23,0,0,0,.9.39h38l3.4,3.42H150.5a2.58,2.58,0,1,0-2.3,3.73A2.55,2.55,0,0,0,150.4,80h35.95a1.22,1.22,0,0,0,.87-2.09Z"/><path class="cls-2" d="M84.12,100.22a1.25,1.25,0,0,0-.88-.36h-30l-3.34-3.34V83.32L53.25,80H66.37L77.92,91.47a2.51,2.51,0,0,0-.08.62,2.58,2.58,0,1,0,2.58-2.58,2.48,2.48,0,0,0-.82.15L67.75,77.88a1.26,1.26,0,0,0-.87-.36H52.74a1.24,1.24,0,0,0-.87.36l-4.06,4.06a1.24,1.24,0,0,0-.36.87V97a1.24,1.24,0,0,0,.36.87L51.87,102a1.24,1.24,0,0,0,.87.36h30l9.39,9.43v25.37l-9.39,9.43H42.54l-12-12a2.58,2.58,0,1,0-2.39,1.62,2.61,2.61,0,0,0,.48,0l12.51,12.5A1.23,1.23,0,0,0,42,149h41.2a1.25,1.25,0,0,0,.88-.36l10.1-10.15a1.23,1.23,0,0,0,.36-.87V111.24a1.23,1.23,0,0,0-.36-.87Z"/><path class="cls-2" d="M124.69,144.42V82.81a1.24,1.24,0,0,0-.36-.87l-4.06-4.06a1.23,1.23,0,0,0-.87-.36H103.65a2.58,2.58,0,1,0-.09,2.46h15.33l3.34,3.34v61.1a2.58,2.58,0,1,0,2.46,0Z"/><path class="cls-2" d="M134.84,144.42V82.81a1.24,1.24,0,0,0-.36-.87L124.33,71.79a1.23,1.23,0,0,0-.87-.36H97.57a2.58,2.58,0,1,0-.09,2.46H123l9.43,9.43v61.1a2.58,2.58,0,1,0,2.46,0Z"/><path class="cls-2" d="M145,144.42l0-61.61a1.24,1.24,0,0,0-.36-.87L128.39,65.7a1.23,1.23,0,0,0-.87-.36h-36a2.58,2.58,0,1,0-.08,2.46H127l15.52,15.52.05,61.1a2.58,2.58,0,1,0,2.46,0Z"/><path class="cls-2" d="M34,130.4a2.61,2.61,0,0,0,.93-.18l12.35,12.34a1.23,1.23,0,0,0,.87.36H79.18a1.23,1.23,0,0,0,.87-.36l6.09-6.09a1.19,1.19,0,0,0,.37-.87V113.27a1.19,1.19,0,0,0-.37-.87l-6.09-6.09a1.23,1.23,0,0,0-.87-.36h-30l-5.37-5.37V79.26l5.37-5.37H72.58L83.89,85.2a2.49,2.49,0,0,0-.25,1.09,2.58,2.58,0,1,0,2.58-2.58,3,3,0,0,0-.31,0L74,71.79a1.23,1.23,0,0,0-.87-.36H48.68a1.23,1.23,0,0,0-.87.36l-6.09,6.09a1.24,1.24,0,0,0-.36.87v22.34a1.24,1.24,0,0,0,.36.87l6.09,6.09a1.23,1.23,0,0,0,.87.36h30L84,113.78v21.31l-5.37,5.37h-30L36.51,128.33a2.84,2.84,0,0,0,.05-.51A2.58,2.58,0,1,0,34,130.4Z"/><path class="cls-2" d="M92.44,77.49a2.42,2.42,0,0,0-.54.06L80.05,65.7a1.23,1.23,0,0,0-.87-.36H44.62a1.23,1.23,0,0,0-.87.36L33.6,75.85a1.24,1.24,0,0,0-.36.87v26.4a1.24,1.24,0,0,0,.36.87l10.15,10.15a1.23,1.23,0,0,0,.87.36h30L78,117.84V131l-3.34,3.34H54.85L42.68,122.28a2.6,2.6,0,0,0,.1-.68,2.58,2.58,0,1,0-2.58,2.57,2.82,2.82,0,0,0,.77-.12l12.5,12.42a1.24,1.24,0,0,0,.87.36H75.12a1.23,1.23,0,0,0,.87-.36l4.06-4.06a1.23,1.23,0,0,0,.36-.87V117.33a1.23,1.23,0,0,0-.36-.87L76,112.4a1.23,1.23,0,0,0-.87-.36h-30l-9.43-9.43V77.23l9.43-9.43H78.67L90,79.16a2.72,2.72,0,0,0-.17.91,2.58,2.58,0,1,0,2.58-2.58Z"/></g></g></svg>