<svg xmlns="http://www.w3.org/2000/svg" viewBox="0 0 164.88 128.2"><defs><style>.cls-1{fill:#fff;}</style></defs><g id="Слой_2" data-name="Слой 2"><g id="Слой_4" data-name="Слой 4"><path class="cls-1" d="M.54,128.2v-4.12l18.22,0a3.16,3.16,0,0,0,2.14-.65,3.34,3.34,0,0,0,0-4.22,3.16,3.16,0,0,0-2.14-.64H7.42A8.07,8.07,0,0,1,2,116.9a7.36,7.36,0,0,1,0-10,8.07,8.07,0,0,1,5.47-1.7H25.23v4.12L8,109.31a3.26,3.26,0,0,0-2.13.62,3,3,0,0,0,0,4,3.31,3.31,0,0,0,2.13.62H19.3a8,8,0,0,1,5.47,1.72,7.68,7.68,0,0,1,0,10.23,7.93,7.93,0,0,1-5.47,1.74Z"/><path class="cls-1" d="M37.78,128.2a9.65,9.65,0,0,1-6.63-2.11q-2.37-2.1-2.37-6.2c0-2.74.79-4.82,2.37-6.22a9.65,9.65,0,0,1,6.63-2.11h5.86a9.65,9.65,0,0,1,6.63,2.11c1.58,1.4,2.37,3.48,2.37,6.22s-.79,4.8-2.37,6.2a9.65,9.65,0,0,1-6.63,2.11Zm0-3.65h5.86a4.17,4.17,0,0,0,3.16-1.14,4.92,4.92,0,0,0,1.09-3.52,5,5,0,0,0-1.09-3.55,4.17,4.17,0,0,0-3.16-1.14H37.78a4.15,4.15,0,0,0-3.15,1.14,5,5,0,0,0-1.1,3.55,4.92,4.92,0,0,0,1.1,3.52A4.15,4.15,0,0,0,37.78,124.55Z"/><path class="cls-1" d="M55.5,128V105.38h4.59V128Z"/><path class="cls-1" d="M63.26,116.85V105.38H91.15v11.47H86V109.5H79.11V128H74V109.5H68.4v7.35Z"/><path class="cls-1" d="M102.69,128.2a9.65,9.65,0,0,1-6.63-2.11q-2.37-2.1-2.37-6.2c0-2.74.79-4.82,2.37-6.22a9.65,9.65,0,0,1,6.63-2.11h7.92a6.22,6.22,0,0,1,4.26,1.31,4.76,4.76,0,0,1,1.48,3.76q0,5-5.74,5h-12c.44,2,1.8,2.94,4.06,2.94h12.83v3.65Zm0-13q-3.27,0-4,2.76h11.73a1.35,1.35,0,0,0,1-.38,1.45,1.45,0,0,0,.36-1,1.19,1.19,0,0,0-1.36-1.33Z"/><path class="cls-1" d="M127.57,128.2a9.65,9.65,0,0,1-6.63-2.11q-2.37-2.1-2.37-6.2c0-2.74.79-4.82,2.37-6.22a9.65,9.65,0,0,1,6.63-2.11h10.61v3.64H127.57a4.17,4.17,0,0,0-3.16,1.14,5,5,0,0,0-1.09,3.55,4.92,4.92,0,0,0,1.09,3.52,4.17,4.17,0,0,0,3.16,1.14H138.5v3.65Z"/><path class="cls-1" d="M140.88,128V105.38h4.59v6.34h9.64a5.31,5.31,0,0,1,4.07,1.38,5.08,5.08,0,0,1,1.29,3.63V128h-4.6V117.26a1.68,1.68,0,0,0-1.9-1.9h-8.5V128Z"/><path class="cls-1" d="M164.53,14,158.7,8.08a1.22,1.22,0,0,0-.88-.37h-38l-3.58-3.83h33.09a2.57,2.57,0,1,0,.07-2.46h-36a1.23,1.23,0,0,0-1.13.74,1.21,1.21,0,0,0,.23,1.33l5.88,6.29a1.2,1.2,0,0,0,.89.39h38l3.39,3.42H127.83a2.58,2.58,0,1,0-.1,2.46h35.92a1.23,1.23,0,0,0,.88-2.1Z"/><path class="cls-1" d="M61.49,36.27a1.23,1.23,0,0,0-.87-.36h-30l-3.34-3.34V19.39l3.34-3.34H43.76L55.3,27.52a2.57,2.57,0,1,0,2.49-1.95,2.53,2.53,0,0,0-.82.15L45.13,14a1.22,1.22,0,0,0-.86-.36H30.14a1.23,1.23,0,0,0-.87.36L25.21,18a1.23,1.23,0,0,0-.36.87v14.2a1.23,1.23,0,0,0,.36.87L29.27,38a1.23,1.23,0,0,0,.87.36h30l9.38,9.42V73.15l-9.38,9.42H20L8,70.6a2.48,2.48,0,0,0,.19-.95,2.58,2.58,0,1,0-2.58,2.58,2.63,2.63,0,0,0,.49,0L18.57,84.67a1.23,1.23,0,0,0,.87.36H60.62a1.23,1.23,0,0,0,.87-.36l10.1-10.15a1.22,1.22,0,0,0,.36-.86V47.28a1.24,1.24,0,0,0-.36-.87Z"/><path class="cls-1" d="M102,80.44V18.88a1.23,1.23,0,0,0-.36-.87L97.62,14a1.23,1.23,0,0,0-.87-.36H81a2.58,2.58,0,1,0-.1,2.46H96.24l3.34,3.34V80.44a2.58,2.58,0,1,0,2.46,0Z"/><path class="cls-1" d="M112.18,80.44V18.88a1.23,1.23,0,0,0-.36-.87L101.68,7.86a1.24,1.24,0,0,0-.87-.36H74.93a2.55,2.55,0,0,0-2.29-1.42A2.58,2.58,0,1,0,74.85,10H100.3l9.42,9.43V80.44a2.58,2.58,0,1,0,2.46,0Z"/><path class="cls-1" d="M122.37,80.44l0-61.56A1.23,1.23,0,0,0,122,18L105.73,1.78a1.22,1.22,0,0,0-.86-.36h-36a2.57,2.57,0,1,0-2.29,3.73,2.54,2.54,0,0,0,2.21-1.27h35.59l15.51,15.51,0,61.05a2.58,2.58,0,1,0,2.46,0Z"/><path class="cls-1" d="M11.39,66.43a2.61,2.61,0,0,0,.93-.18L24.66,78.58a1.23,1.23,0,0,0,.87.36h31a1.23,1.23,0,0,0,.87-.36l6.09-6.08a1.24,1.24,0,0,0,.36-.87V49.31a1.23,1.23,0,0,0-.36-.87l-6.09-6.09a1.23,1.23,0,0,0-.87-.36h-30l-5.37-5.36V15.33L26.59,10H50l11.29,11.3A2.63,2.63,0,0,0,61,22.35a2.58,2.58,0,1,0,2.57-2.58l-.31,0L51.35,7.86a1.26,1.26,0,0,0-.87-.36H26.08a1.24,1.24,0,0,0-.87.36L19.13,14a1.19,1.19,0,0,0-.36.87V37.14a1.2,1.2,0,0,0,.36.87l6.08,6.08a1.24,1.24,0,0,0,.87.36h30l5.37,5.37v21.3l-5.37,5.36H26L13.92,64.36a2.76,2.76,0,0,0,.05-.51,2.58,2.58,0,1,0-2.58,2.58Z"/><path class="cls-1" d="M69.81,13.55a3.08,3.08,0,0,0-.54.06L57.43,1.78a1.23,1.23,0,0,0-.87-.36H22a1.24,1.24,0,0,0-.87.36L11,11.92a1.23,1.23,0,0,0-.36.87V39.17A1.26,1.26,0,0,0,11,40L21.15,50.18a1.24,1.24,0,0,0,.87.36H52l3.33,3.34V67.06L52,70.4H32.24L20.08,58.31a2.55,2.55,0,0,0,.11-.68,2.58,2.58,0,1,0-2.58,2.58,2.38,2.38,0,0,0,.76-.13L30.87,72.5a1.23,1.23,0,0,0,.87.36H52.5a1.23,1.23,0,0,0,.87-.36l4.06-4.06a1.23,1.23,0,0,0,.36-.87V53.37a1.23,1.23,0,0,0-.36-.87l-4.06-4.06a1.23,1.23,0,0,0-.87-.36h-30l-9.42-9.42V13.3l9.42-9.42H56.05L67.41,15.23a2.45,2.45,0,0,0-.18.9,2.58,2.58,0,1,0,2.58-2.58Z"/></g></g></svg>