<svg xmlns="http://www.w3.org/2000/svg" viewBox="0 0 408.22 56.99"><defs><style>.cls-1{fill:#fff;}</style></defs><g id="Слой_2" data-name="Слой 2"><g id="Слой_4" data-name="Слой 4"><path class="cls-1" d="M116.93,57V49.48l33.19.06a5.74,5.74,0,0,0,3.9-1.18,4.87,4.87,0,0,0,1.36-3.84A4.87,4.87,0,0,0,154,40.68a5.74,5.74,0,0,0-3.9-1.18H129.46q-6.41,0-10-3.09T116,27.31q0-6,3.55-9.09t10-3.09H161.9v7.51l-31.46-.06a6,6,0,0,0-3.87,1.13,4.38,4.38,0,0,0-1.38,3.6,4.39,4.39,0,0,0,1.38,3.61,6,6,0,0,0,3.87,1.13h20.67q6.4,0,9.95,3.14t3.55,9.33q0,6.12-3.55,9.29T151.11,57Z"/><path class="cls-1" d="M184.76,57q-7.74,0-12.07-3.84t-4.33-11.29q0-7.5,4.33-11.34t12.07-3.84h10.68q7.74,0,12.06,3.84t4.33,11.34q0,7.45-4.33,11.29T195.44,57Zm0-6.64h10.68a7.57,7.57,0,0,0,5.74-2.08c1.33-1.39,2-3.52,2-6.41s-.66-5.08-2-6.46a7.57,7.57,0,0,0-5.74-2.08H184.76A7.55,7.55,0,0,0,179,35.4c-1.33,1.38-2,3.54-2,6.46s.67,5,2,6.41A7.55,7.55,0,0,0,184.76,50.35Z"/><path class="cls-1" d="M217,56.7V15.42h8.37V56.7Z"/><path class="cls-1" d="M231.17,36.32V15.42H282v20.9h-9.35V22.93H260V56.7H250.8V22.93H240.52V36.32Z"/><path class="cls-1" d="M303,57q-7.74,0-12.06-3.84t-4.33-11.29q0-7.5,4.33-11.34T303,26.68h14.43q5.08,0,7.77,2.4a8.67,8.67,0,0,1,2.68,6.84q0,9.06-10.45,9.06H295.59q1.21,5.37,7.39,5.37h23.38V57Zm0-23.67q-5.94,0-7.33,5H317a2.4,2.4,0,0,0,1.82-.69,2.66,2.66,0,0,0,.66-1.91A2.17,2.17,0,0,0,317,33.32Z"/><path class="cls-1" d="M348.3,57q-7.74,0-12.07-3.84T331.9,41.86q0-7.5,4.33-11.34t12.07-3.84h19.34v6.64H348.3a7.59,7.59,0,0,0-5.75,2.08c-1.32,1.38-2,3.54-2,6.46s.67,5,2,6.41a7.59,7.59,0,0,0,5.75,2.08h19.91V57Z"/><path class="cls-1" d="M372.54,56.7V15.42h8.37V27h17.55q5.09,0,7.42,2.51a9.3,9.3,0,0,1,2.34,6.61V56.7h-8.37V37.07q0-3.47-3.47-3.46H380.91V56.7Z"/><polygon class="cls-1" points="48.44 8.55 39.89 0 11.4 0 2.85 8.55 2.85 22.79 11.4 31.34 31.35 31.34 34.19 34.19 34.19 48.44 31.34 51.29 19.95 51.29 8.55 39.89 0 48.44 8.55 56.99 37.04 56.99 45.59 48.44 45.59 34.19 37.06 25.64 17.1 25.64 14.25 22.79 14.25 8.55 17.1 5.7 28.51 5.7 39.89 17.1 48.44 8.55"/><polygon class="cls-1" points="51.29 8.55 65.53 8.55 68.38 11.4 68.38 56.99 79.78 56.99 79.78 8.55 71.23 0 42.74 0 51.29 8.55"/><polygon class="cls-1" points="74.08 0 82.63 8.55 99.72 8.55 99.72 0 74.08 0"/></g></g></svg>